<svg width="226" height="110" viewBox="0 0 226 110" fill="none" xmlns="http://www.w3.org/2000/svg">
<g filter="url(#filter0_i)">
<path fill-rule="evenodd" clip-rule="evenodd" d="M6 109.019H220.5C223.261 109.019 225.5 106.78 225.5 104.019V66.019C225.5 54.9733 216.551 46.019 205.505 46.019H157C151.236 39.8433 147.303 32.5532 143.584 25.6585C136.719 12.9338 130.582 1.55631 115 1.01901C98.8905 0.463509 92.1405 12.1657 84.5912 25.2537C80.5008 32.3451 76.1757 39.8433 70 46.019H21C9.9543 46.019 1 54.9733 1 66.019V104.019C1 106.78 3.23858 109.019 6 109.019ZM114 59.519C123.665 59.519 131.5 51.684 131.5 42.019C131.5 32.3541 123.665 24.519 114 24.519C104.335 24.519 96.5 32.3541 96.5 42.019C96.5 51.684 104.335 59.519 114 59.519Z" fill="url(#paint0_linear)"/>
</g>
<path d="M157 46.019L156.634 46.3602L156.783 46.519H157V46.019ZM143.584 25.6585L143.144 25.8959L143.144 25.8959L143.584 25.6585ZM115 1.01901L115.017 0.519306L115.017 0.519306L115 1.01901ZM84.5912 25.2537L84.1581 25.0038L84.1581 25.0038L84.5912 25.2537ZM70 46.019V46.519H70.2071L70.3536 46.3726L70 46.019ZM220.5 108.519H6V109.519H220.5V108.519ZM225 104.019C225 106.504 222.985 108.519 220.5 108.519V109.519C223.538 109.519 226 107.057 226 104.019H225ZM225 66.019V104.019H226V66.019H225ZM205.505 46.519C216.275 46.519 225 55.2493 225 66.019H226C226 54.6973 216.827 45.519 205.505 45.519V46.519ZM157 46.519H205.505V45.519H157V46.519ZM143.144 25.8959C146.859 32.7823 150.82 40.13 156.634 46.3602L157.366 45.6779C151.652 39.5567 147.748 32.324 144.024 25.4211L143.144 25.8959ZM114.983 1.51871C122.632 1.78247 127.942 4.69757 132.201 9.11549C136.484 13.5588 139.703 19.5181 143.144 25.8959L144.024 25.4211C140.6 19.0742 137.318 12.9824 132.921 8.42145C128.5 3.83513 122.95 0.792855 115.017 0.519306L114.983 1.51871ZM85.0243 25.5035C88.8083 18.9434 92.3486 12.8132 96.9331 8.37946C101.49 3.97229 107.077 1.24608 114.983 1.51871L115.017 0.519306C106.814 0.236435 100.971 3.08358 96.2379 7.66063C91.5328 12.2111 87.9235 18.476 84.1581 25.0038L85.0243 25.5035ZM70.3536 46.3726C76.5833 40.1428 80.939 32.5861 85.0243 25.5035L84.1581 25.0038C80.0626 32.1041 75.768 39.5439 69.6464 45.6655L70.3536 46.3726ZM21 46.519H70V45.519H21V46.519ZM1.5 66.019C1.5 55.2495 10.2304 46.519 21 46.519V45.519C9.67816 45.519 0.5 54.6972 0.5 66.019H1.5ZM1.5 104.019V66.019H0.5V104.019H1.5ZM6 108.519C3.51472 108.519 1.5 106.504 1.5 104.019H0.5C0.5 107.057 2.96243 109.519 6 109.519V108.519ZM131 42.019C131 51.4079 123.389 59.019 114 59.019V60.019C123.941 60.019 132 51.9602 132 42.019H131ZM114 25.019C123.389 25.019 131 32.6302 131 42.019H132C132 32.0779 123.941 24.019 114 24.019V25.019ZM97 42.019C97 32.6302 104.611 25.019 114 25.019V24.019C104.059 24.019 96 32.0779 96 42.019H97ZM114 59.019C104.611 59.019 97 51.4079 97 42.019H96C96 51.9602 104.059 60.019 114 60.019V59.019Z" fill="#929293"/>
<defs>
<filter id="filter0_i" x="0.5" y="0.5" width="225.5" height="114.019" filterUnits="userSpaceOnUse" color-interpolation-filters="sRGB">
<feFlood flood-opacity="0" result="BackgroundImageFix"/>
<feBlend mode="normal" in="SourceGraphic" in2="BackgroundImageFix" result="shape"/>
<feColorMatrix in="SourceAlpha" type="matrix" values="0 0 0 0 0 0 0 0 0 0 0 0 0 0 0 0 0 0 127 0" result="hardAlpha"/>
<feOffset dy="5"/>
<feGaussianBlur stdDeviation="2.5"/>
<feComposite in2="hardAlpha" operator="arithmetic" k2="-1" k3="1"/>
<feColorMatrix type="matrix" values="0 0 0 0 0 0 0 0 0 0 0 0 0 0 0 0 0 0 0.3 0"/>
<feBlend mode="normal" in2="shape" result="effect1_innerShadow"/>
</filter>
<linearGradient id="paint0_linear" x1="113.25" y1="1" x2="113.25" y2="109.019" gradientUnits="userSpaceOnUse">
<stop offset="0.385417" stop-color="#F9F9F9"/>
<stop offset="0.854167" stop-color="#D2D2D4"/>
<stop offset="1" stop-color="#838384"/>
</linearGradient>
</defs>
</svg>
